<svg t="1735268652278" class="icon" viewBox="0 0 1024 1024" version="1.1" xmlns="http://www.w3.org/2000/svg" p-id="3569" width="200" height="200"><path d="M140.678337 251.46804c37.462178-60.446416 89.098139-111.154693 150.568554-147.881822A454.326495 454.326495 0 0 1 493.958337 40.412515a455.553267 455.553267 0 0 1 209.509386 35.657505c65.936475 28.220832 124.045941 71.60396 169.441584 126.519762a98.238099 98.238099 0 0 1 32.316832-16.003802c-48.660277-60.664396-111.54503-108.787327-183.245307-140.232237a491.291881 491.291881 0 0 0-228.402693-40.290852 490.014416 490.014416 0 0 0-221.249901 68.871604C205.322139 115.194931 149.240396 170.886337 108.888713 237.20301l7.416396 1.916198a101.563564 101.563564 0 0 1 24.368158 12.348832z m820.518019 125.242297a436.761347 436.761347 0 0 1 5.996991 186.646812 439.645782 439.645782 0 0 1-72.567129 172.518653 447.285228 447.285228 0 0 1-138.250139 127.756673 454.448158 454.448158 0 0 1-179.392633 60.319683 94.654099 94.654099 0 0 1-1.591763 34.790654 490.05497 490.05497 0 0 0 197.013545-64.466376c60.182812-35.246891 111.90495-82.908515 151.612831-139.715169a473.96499 473.96499 0 0 0 78.432317-189.358891 470.979168 470.979168 0 0 0-9.119683-204.318416 101.396277 101.396277 0 0 1-32.134337 15.826377zM76.936871 432.19897c-8.288317-0.552554-16.475248-2.129109-24.368158-4.694178-3.350812-1.044277-6.706693-2.433267-10.062574-3.827327-13.940594 110.095208 11.33497 221.54899 71.522851 315.326099 60.187881 93.777109 151.546931 164.068119 258.48396 198.863842l4.237941 1.394059c-0.339644-11.446495 1.333228-22.862574 4.942574-33.746376v-1.566416c-97.949149-32.367525-181.653545-96.874455-237.121901-182.738376-55.473426-85.863921-79.344792-187.883723-67.634693-289.011327z m933.168159-187.68602a79.643881 79.643881 0 0 0-19.552317-24.78891 81.032871 81.032871 0 0 0-27.769663-15.395486 82.746297 82.746297 0 0 0-47.352397-1.105108 81.707089 81.707089 0 0 0-39.991762 25.001821 79.780752 79.780752 0 0 0-19.151841 42.683565 79.319446 79.319446 0 0 0 8.151445 45.963406 81.504317 81.504317 0 0 0 30.06099 32.225584 83.197465 83.197465 0 0 0 42.683565 12.130851 82.528317 82.528317 0 0 0 39.885306-10.16396 81.022733 81.022733 0 0 0 29.756832-28.073822 79.314376 79.314376 0 0 0 3.279842-78.477941z m-28.778456 50.439604a45.461545 45.461545 0 0 1-8.881425 15.496872 46.201663 46.201663 0 0 1-14.229545 10.964911 46.820119 46.820119 0 0 1-35.333069 2.590415 44.848158 44.848158 0 0 1-15.811169-8.658376 44.087762 44.087762 0 0 1-11.030812-14.128158 44.853228 44.853228 0 0 1 6.007129-50.490297 46.196594 46.196594 0 0 1 22.82202-14.183921 46.744079 46.744079 0 0 1 26.968713 0.836436 45.917782 45.917782 0 0 1 15.953109 9.008158 45.152317 45.152317 0 0 1 11.061227 14.472871 45.142178 45.142178 0 0 1 2.473822 34.790654v-0.694495zM86.472238 415.328317a80.97204 80.97204 0 0 0 36.904554-8.698931 81.068356 81.068356 0 0 0 25.123485-19.288713 79.699644 79.699644 0 0 0 15.664159-27.323564 77.869624 77.869624 0 0 0-4.765149-61.237228 80.733782 80.733782 0 0 0-25.924436-29.442534 82.305267 82.305267 0 0 0-36.940039-13.97101 82.715881 82.715881 0 0 0-39.261782 4.800633 81.580356 81.580356 0 0 0-32.357386 22.431683 79.927762 79.927762 0 0 0-17.833822 34.795723 79.207921 79.207921 0 0 0 0.882059 38.967763A80.059564 80.059564 0 0 0 27.35398 390.336634a81.727366 81.727366 0 0 0 33.340832 20.98693c8.303525 2.737426 17.017663 4.090931 25.777426 4.004753zM43.033347 320.699564a45.973545 45.973545 0 0 1 16.916277-22.761188 47.088792 47.088792 0 0 1 27.227247-8.719208c4.912158 0.065901 9.783762 0.826297 14.477941 2.255842a46.439921 46.439921 0 0 1 22.066693 15.258614 45.192871 45.192871 0 0 1 3.893228 50.677861 46.140832 46.140832 0 0 1-19.481347 18.350891 47.043168 47.043168 0 0 1-26.54796 4.592792 46.779564 46.779564 0 0 1-24.667248-10.706376A45.674455 45.674455 0 0 1 42.440238 347.247525a45.101624 45.101624 0 0 1 0.593109-26.547961z m462.25996 541.325941a82.86796 82.86796 0 0 0-60.755644 6.275802 80.860515 80.860515 0 0 0-39.378376 46.00903 79.43604 79.43604 0 0 0 3.984475 60.05101c9.155168 18.756436 25.326257 33.295208 45.121901 40.569663a80.145743 80.145743 0 0 0 25.427644 3.999683 83.30899 83.30899 0 0 0 36.899485-8.698931 81.063287 81.063287 0 0 0 34.369901-32.220514 79.446178 79.446178 0 0 0 10.356594-45.608555 79.689505 79.689505 0 0 0-17.159604-43.575762 81.62598 81.62598 0 0 0-38.866376-26.801426z m17.656396 90.801426a45.573069 45.573069 0 0 1-15.50701 21.564831 46.652832 46.652832 0 0 1-25.047445 9.454258 46.799842 46.799842 0 0 1-26.167763-5.824634 45.86202 45.86202 0 0 1-18.482693-19.151841 44.974891 44.974891 0 0 1-4.587723-26.035961 45.284119 45.284119 0 0 1 10.848317-24.170455 46.384158 46.384158 0 0 1 22.639525-14.173782 46.946851 46.946851 0 0 1 26.816634 0.588039 46.460198 46.460198 0 0 1 16.054495 8.577267 45.649109 45.649109 0 0 1 11.431287 14.021703 45.066139 45.066139 0 0 1 5.033822 17.291406 44.863366 44.863366 0 0 1-2.149387 17.859169h-0.882059z" fill="#1296db" p-id="3570"></path><path d="M740.590257 412.504713h185.344v29.467881H850.528317v196.749941h-34.217822V441.972594h-75.720238v-29.467881zM640.010139 408.069069c26.294495 0 46.891089 5.388673 61.779643 16.794614 15.841584 11.720238 24.712871 29.782178 26.933228 54.49505h-34.217822c-3.168317-14.574257-8.871287-25.346535-17.742574-31.683169-8.871287-6.656-21.544554-9.824317-38.653465-9.824316-14.893624 0-26.299564 2.220356-34.217822 6.656-9.824317 5.069307-14.574257 13.306931-14.574258 24.712871 0 10.138614 5.383604 18.056871 16.789545 24.079208 5.069307 2.84895 18.061941 7.60396 39.287129 13.940594 30.415842 9.50495 50.378772 16.789545 59.250059 22.178218 19.324198 11.720238 29.148515 27.881188 29.148515 48.792079 0 20.277228-7.923327 36.118812-23.764911 47.839049-15.841584 11.405941-38.019802 17.108911-66.534654 17.108911-27.561822 0-49.106376-5.70297-64.633663-16.475247-18.690535-13.306931-28.829149-34.217822-30.730139-62.732674h34.217822c2.534653 17.742574 8.871287 30.735208 19.009901 38.339169 9.185584 6.970297 23.126178 10.452911 42.136079 10.452911 17.108911 0 30.735208-3.168317 40.873822-8.871287 10.138614-5.70297 15.207921-13.621228 15.207921-23.759842 0-12.673267-7.289663-22.497584-21.544554-29.782178-5.069307-2.534653-19.962931-7.60396-44.990099-15.207921-27.881188-8.871287-44.990099-14.893624-51.960396-18.695604-17.428277-10.452911-25.980198-25.660832-25.980198-45.304396 0-19.962931 8.237624-35.485149 25.027168-46.891089 15.841584-10.772277 35.804515-16.16095 59.883723-16.160951zM365.750495 412.504713h162.537188v29.467881h-128v65.90099h120.39604v29.462812h-120.39604v71.923327h133.383604v29.462812H365.750495V412.504713zM161.011327 412.504713h185.344v29.467881H270.954455v196.749941H236.736634V441.972594H161.011327v-29.467881z" fill="#1296db" p-id="3571"></path></svg>